<?xml version="1.0" encoding="utf-8" ?>
<!DOCTYPE svg PUBLIC "-//W3C//DTD SVG 1.1//EN" "http://www.w3.org/Graphics/SVG/1.1/DTD/svg11.dtd">
<svg version="1.1" id="AxiaLogo" xmlns="http://www.w3.org/2000/svg" xmlns:xlink="http://www.w3.org/1999/xlink" x="0px" y="0px" viewBox="0 0 527.586 231.035" enable-background="new 0 0 527.586 231.035" xml:space="preserve" preserveAspectRatio="xMaxYMax meet">
<g stroke-width="2" stroke="none" fill="none" fill-rule="evenodd">
<path id="Logo1" fill="url(#Gradient2)" d="M362.292,204.637L411.464,94.45l50.129,110.187h39.84l-71.664-158.4h-36.012l-58.623,128.97V46.237h-33.02 h-2.512h-36.728l-29.91,45.582l-27.158-45.582h-38.284l43.069,76.329l-24.885,43.309L131.271,46.237H96.696l-72.62,158.4h40.317 l49.172-109.708l50.128,109.708h39.721l28.832-48.453l31.945,48.453 M252.464,123.164l47.138-72.979v146.317L252.464,123.164z" />

<g opacity="0.43" enable-background="new">
<g>
<defs>
<rect id="SVGID_1_" x="64.393" y="152.95" width="99.3" height="51.689" />

<linearGradient id="Gradient1">
<stop class="stop1" offset="0%" />

<stop class="stop2" offset="50%" />

<stop class="stop3" offset="100%" />

                                        </linearGradient>
<linearGradient id="Gradient2" x1="0" x2="0" y1="0" y2="1">
<stop class="xS1" offset="0%" stop-color="#001828" />

<stop class="xS2" offset="50%" stop-color="#d4dbe2" stop-opacity=".6" />

<stop class="xS3" offset="100%" stop-color="##0d324b" />

                                        </linearGradient>

                                    </defs>
<clipPath id="SVGID_2_"><use xlink:href="#SVGID_1_" overflow="visible" /></clipPath>
<polygon clip-path="url(#SVGID_2_)" id="Logo2" fill="url(#Gradient2)" points="75.878,178.915 113.804,152.954 151.25,177.36 163.693,204.637 113.804,172.334 64.394,204.637" />

		                        </g>
	                        </g>
<g opacity="0.43" enable-background="new">
<g>
<defs><rect id="SVGID_3_" x="362.292" y="152.95" width="99.301" height="51.689" /></defs>
<clipPath id="SVGID_4_"><use xlink:href="#SVGID_3_" overflow="visible" /></clipPath>
<polygon clip-path="url(#SVGID_4_)" id="Logo3" fill="url(#Gradient2)" points="373.778,178.915 411.583,152.954 449.271,177.48 461.593,204.637 411.464,172.334 362.292,204.637" />

                                </g>
                            </g>
                        </g>
                    </svg>