<?xml version="1.0" standalone="no"?>
<!DOCTYPE svg PUBLIC "-//W3C//DTD SVG 20010904//EN"
 "http://www.w3.org/TR/2001/REC-SVG-20010904/DTD/svg10.dtd">
<svg version="1.0" xmlns="http://www.w3.org/2000/svg"
 width="400.000000pt" height="400.000000pt" viewBox="0 0 400.000000 400.000000"
 preserveAspectRatio="xMidYMid meet">
<metadata>
Created by potrace 1.16, written by Peter Selinger 2001-2019
</metadata>
<g transform="translate(0.000000,400.000000) scale(0.100000,-0.100000)"
fill="#000000" stroke="none">
<path d="M1530 2390 c-89 -3 -144 -9 -142 -15 1 -5 45 -88 98 -183 l96 -173
-53 -92 c-112 -195 -150 -257 -158 -257 -4 0 -41 73 -82 162 -41 89 -115 250
-166 357 l-92 196 -252 0 -253 0 -121 -256 c-66 -141 -162 -348 -214 -460 -52
-112 -107 -231 -123 -263 -15 -33 -28 -61 -28 -63 0 -2 75 -2 167 -1 l167 3
106 245 c221 507 286 652 296 652 5 0 37 -62 71 -138 34 -77 124 -278 201
-449 l138 -310 165 -3 165 -2 116 197 c64 109 119 198 123 198 4 0 65 -88 135
-195 l128 -195 408 0 407 0 62 145 c75 173 140 323 230 525 36 83 74 169 83
193 9 23 21 42 27 42 5 -1 47 -85 92 -188 45 -103 112 -252 148 -332 36 -80
89 -200 118 -267 l52 -123 163 0 c89 0 162 2 162 5 0 11 -325 722 -466 1020
l-14 30 -247 -3 c-156 -2 -252 -7 -260 -13 -7 -6 -23 -34 -36 -62 -132 -283
-289 -622 -307 -664 -12 -29 -26 -53 -31 -53 -5 0 -9 156 -9 349 0 191 -3 369
-6 395 l-7 46 -133 0 -134 0 -1 -307 c-1 -170 -4 -389 -8 -487 l-6 -180 -176
270 c-96 148 -183 283 -193 300 l-18 30 111 174 c61 95 111 179 111 187 0 10
-30 13 -140 13 -140 0 -141 0 -166 -27 -13 -14 -34 -41 -45 -60 -11 -18 -24
-33 -27 -33 -4 0 -25 28 -47 63 l-40 62 -145 -5z"/>
</g>
</svg>
